<svg data-name="Equipe" id="equipe_logo" viewBox="0 0 589.02 275.78" xmlns="http://www.w3.org/2000/svg" xmlns:xlink="http://www.w3.org/1999/xlink">
  <defs>
    <style>
      .clip{fill:none;}
      .container{clip-path: url(#clip-path);}
      .part {fill: #FFF;}
    </style>
    <clipPath id="clip-path">
      <rect class="clip" height="275.78" width="589.02"/>
    </clipPath>
  </defs>
  <title>Equipe</title>
  <g class="container">
    <polygon class="part" points="18.78 134.81 0 256.84 67.42 256.84 71.53 229.98 34.91 229.98 38.17 208.95 72.89 208.95 77.02 182.07 42.3 182.07 45.43 161.67 82.05 161.67 86.18 134.81 18.78 134.81"/>
    <path class="part" d="M220.85,196.15c6.09-39.65-18.55-65.39-55.48-65.39-34.1,0-69.5,25.89-75.17,62.8-6.08,39.49,17.14,67.34,55.16,67.34,12.73,0,23.77-2.28,33.76-7.93l17.55,22.8,29-4.53L199,239c11.83-12.61,19.33-26.71,21.84-42.89m-32.09.16a37.29,37.29,0,0,1-8.26,18l-7-8.89-29.65,3.71,16,19.42a29.33,29.33,0,0,1-9.68,1.62c-18.4,0-31.28-15.37-28-36.4,2.59-16.84,20.21-32.22,38.59-32.22,18.54,0,30.77,16.51,28,34.8"/>
    <path class="part" d="M306.65,199.06c-2.42,15.87-6.2,33.19-26,33.19s-18.23-17.32-15.79-33.19l17-98.77s3.05-37.49,26.72-48.68c0,0-43.42-.72-57.28,48.68l-.66,2.49A112.06,112.06,0,0,0,248,117.6l-14.62,85.85c-2.42,15.69-4.17,31.23,5.79,43,8.36,10.05,23.38,13.62,37.2,13.62s29.92-3.56,41.38-13.62c13.6-11.8,16.61-27.34,19-43l10.55-68.64h-30.8Z"/>
    <polygon class="part" points="348.05 256.84 378.85 256.84 397.63 134.81 366.83 134.81 348.05 256.84"/>
    <path class="part" d="M464.88,134.81H417.73L399,256.84h30.79L436,216.39h17.43c26.87,0,43.89-12.63,48.33-41.43,4.3-28-11.43-40.15-36.9-40.15m4.67,41.1c-2.28,14.9-13.29,14.9-24.44,14.9H439.9l4.71-30.43h5.18c12,0,22.14.17,19.76,15.53"/>
    <polygon class="part" points="584.9 161.67 589.02 134.81 521.61 134.81 502.84 256.84 570.25 256.84 574.37 229.98 537.77 229.98 541.01 208.95 575.73 208.95 579.87 182.07 545.15 182.07 548.27 161.67 584.9 161.67"/>
    <path class="part" d="M362.78,49.15a7.92,7.92,0,1,0,7.93-7.92,7.92,7.92,0,0,0-7.93,7.92"/>
    <path class="part" d="M323.86,34.58c-4.13,7.06-6.11,16.29-4.57,24.34,4.32,22.52,32.56,27.78,51.42,29.82,4.45.48,9.42-4.17,13.8-3.7-18.86-2-47.1-7.3-51.42-29.82-1.54-8,.44-17.28,4.57-24.33-1.67,2.86-12.05.71-13.8,3.7"/>
    <path class="part" d="M439.58,98.6c1.56,1.54,10.72-4.69,12.16-3.26l-77.56-77a1.19,1.19,0,0,0,.54-.27L389.66,0a11.93,11.93,0,0,1-2,.49c-1.63.42-3.26.85-4.88,1.29s-3.25.87-4.87,1.33c-.44.12-1.73.26-2,.59L361.49,21.12,439.58,98.6"/>
    <path class="part" d="M177.52,120.42S216.27,25.64,333.73,8.17L317.84,6.6C188.49,9,131.59,128.49,131.59,128.49c18-12.21,45.93-8.07,45.93-8.07"/>
  </g>
</svg>
